<svg xmlns="http://www.w3.org/2000/svg" viewBox="35.32 79.08 828.68 740.92"><path d="M247 80c-67 6-121 32-158 76-21 25-37 60-45 96-9 36-11 80-6 112 16 117 116 242 304 380l88 62 20 14 17-12 88-62c189-139 290-265 307-382 4-32 2-76-6-112-8-34-24-69-43-92-32-41-78-67-135-76-47-8-82-5-126 11-24 9-58 27-79 43l-22 20-1 3-3-4c-9-12-40-34-71-49-45-23-87-32-129-28Z" fill="red"/><path d="M285 132c13 3 26 14 33 26 8 14 13 38 13 59v5h25c29 0 40 1 51 5 22 7 31 22 31 49 0 18-4 29-14 39l-12 9c-15 8-30 11-61 12h-20v63c0 65 0 71 4 80 4 8 9 10 15 6l12-14c14-21 28-34 41-39 3-2 7-2 12-2 6 0 8 0 15 4 36 17 39 65 6 115-20 31-44 50-72 57-19 5-45 5-64 0-20-5-35-14-49-28-21-21-33-48-40-89l-2-82v-71h-21l-30-2c-28-5-42-15-49-36-2-7-3-28-1-36 7-27 35-40 86-40h14v-12c0-48 17-75 51-80 5-1 20 0 26 2zM712 261c18 4 32 18 37 38a346 346 0 0 1-127 314c-24 18-71 42-98 50-13 3-30 4-39 2-12-4-22-11-31-22-17-23-17-46 1-65 8-9 13-13 34-24 45-24 73-44 77-54 2-3-1-6-7-8l-16-8c-51-24-83-61-90-104-3-12-4-39-3-50 1-22 5-39 13-48 5-7 14-13 22-15 9-2 26-2 34 0 14 3 26 12 33 24 4 8 6 12 9 29s6 27 10 35c3 5 11 13 16 15 9 5 22 5 31 1 17-8 26-25 30-56 0-7 2-16 3-20 5-19 16-31 33-35 7-1 20-1 28 1Z" fill="#fff"/></svg>