<svg id="Layer_1" data-name="Layer 1" xmlns="http://www.w3.org/2000/svg" viewBox="0 0 21 21"><defs><style>.cls-1{fill:#1da1f2;}</style></defs><title>VerifiedBadgeFill</title><path class="cls-1" d="M622.5,421.5a4,4,0,0,0-2.15-3.6,4.17,4.17,0,0,0,.24-1.4,3.91,3.91,0,0,0-3.82-4,3.61,3.61,0,0,0-1.34.25,3.75,3.75,0,0,0-6.87,0,3.61,3.61,0,0,0-1.34-.25,3.91,3.91,0,0,0-3.82,4,4.19,4.19,0,0,0,.24,1.4,4.1,4.1,0,0,0-.21,7.09,4.34,4.34,0,0,0,0,.51,3.91,3.91,0,0,0,3.82,4,3.64,3.64,0,0,0,1.34-.25,3.75,3.75,0,0,0,6.87,0,3.64,3.64,0,0,0,1.34.25,3.91,3.91,0,0,0,3.82-4,4.32,4.32,0,0,0,0-.51A4,4,0,0,0,622.5,421.5Zm-6.62-3.33-4.33,6.5a0.75,0.75,0,0,1-1,.21l-0.11-.09L608,422.37A0.75,0.75,0,1,1,609,421.3l1.77,1.77,3.83-5.74A0.75,0.75,0,0,1,615.88,418.17Z" transform="translate(-601.5 -410.5)"/></svg>
